<svg viewBox="0 0 100 100" xmlns="http://www.w3.org/2000/svg" xmlns:xlink="http://www.w3.org/1999/xlink" width="100.000000" height="100.000000" fill="none" customFrame="#000000">
	<g id="Сочетание 348">
		<path id="" d="M59.8851 38.6992Q59.5687 35.6055 57.2308 33.8828Q54.9105 32.1602 50.9379 32.1602Q48.2308 32.1602 46.35 32.9336Q44.4867 33.6895 43.5023 35.0254Q42.5355 36.3438 42.5179 38.0312Q42.4828 39.4375 43.1156 40.4922Q43.766 41.5469 44.9086 42.3027Q46.0687 43.0586 47.5804 43.6035Q49.0922 44.1309 50.7972 44.5176L55.5082 45.6426Q58.9359 46.416 61.7836 47.6992Q64.6488 48.9824 66.7582 50.8457Q68.8675 52.709 70.0277 55.2402Q71.1879 57.7715 71.2054 61.041Q71.1879 65.8398 68.7621 69.373Q66.3539 72.8887 61.8187 74.8223Q57.2836 76.7383 50.8851 76.7383Q44.5394 76.7383 39.8461 74.8047Q35.1527 72.8535 32.5336 69.0391Q29.932 65.207 29.7914 59.5469L40.514 59.5469Q40.6898 62.1836 42.0257 63.9414Q43.3793 65.6992 45.6293 66.5781Q47.8793 67.457 50.7621 67.457Q53.5746 67.457 55.6488 66.6484Q57.723 65.8223 58.8656 64.3809Q60.0257 62.9219 60.0433 61.0059Q60.0257 59.248 58.9886 58.0527Q57.9515 56.8398 55.9652 55.9961Q53.9964 55.1523 51.1488 54.4668L45.4359 53.043Q38.8089 51.4434 34.9769 48.0156Q31.1449 44.5703 31.1625 38.7695Q31.1449 34.0234 33.7113 30.4727Q36.2953 26.9043 40.7953 24.918Q45.2953 22.9141 51.0257 22.9141Q56.8441 22.9141 61.2035 24.918Q65.5629 26.9043 67.9886 30.4727Q70.432 34.0234 70.5023 38.6992L59.8851 38.6992Z" fill="rgb(0,0,0)" fill-rule="nonzero" />
		<rect id="Прямоугольник 29" width="100.000000" height="100.000000" x="0.000000" y="0.000000" rx="10.000000" fill="rgb(255,255,255)" fill-opacity="0" />
		<rect id="Прямоугольник 29" width="88.000000" height="88.000000" x="6.000000" y="6.000000" rx="10.000000" stroke="rgb(0,0,0)" stroke-width="12" />
	</g>
</svg>
