<svg viewBox="0 0 100 100" xmlns="http://www.w3.org/2000/svg" xmlns:xlink="http://www.w3.org/1999/xlink" width="100" height="100" fill="none" clip-path="url(#clipPath_0)" customframe="url(#clipPath_0)">
	<defs>
		<clipPath id="clipPath_0">
			<rect width="98.000000" height="98.000000" x="1.000000" y="1.000000" rx="1.000000" fill="rgb(255,255,255)" class="svg-elem-1"></rect>
		</clipPath>
	</defs>
	<rect id="Вывеска - банер" width="98.000000" height="98.000000" x="1.000000" y="1.000000" rx="1.000000" stroke="rgb(0,0,0)" stroke-width="2" class="svg-elem-2"></rect>
	<rect id="Прямоугольник 10" width="18.000000" height="18.000000" x="5.000000" y="77.000000" rx="1.000000" fill="rgb(0,0,0)" class="svg-elem-3"></rect>
	<rect id="Прямоугольник 10" width="16.000000" height="16.000000" x="6.000000" y="78.000000" rx="1.000000" stroke="rgb(0,0,0)" stroke-width="2" class="svg-elem-4"></rect>
	<rect id="Прямоугольник 17" width="18.000000" height="18.000000" x="5.000000" y="53.000000" rx="1.000000" fill="rgb(0,0,0)" class="svg-elem-5"></rect>
	<rect id="Прямоугольник 21" width="18.000000" height="18.000000" x="5.000000" y="29.000000" rx="1.000000" fill="rgb(0,0,0)" class="svg-elem-6"></rect>
	<rect id="Прямоугольник 25" width="18.000000" height="18.000000" x="5.000000" y="5.000000" rx="1.000000" fill="rgb(255,255,255)" fill-opacity="0" class="svg-elem-7"></rect>
	<rect id="Прямоугольник 25" width="15.000000" height="15.000000" x="6.500000" y="6.500000" rx="1.000000" stroke="rgb(0,0,0)" stroke-width="3" class="svg-elem-8"></rect>
	<rect id="Прямоугольник 14" width="18.000000" height="18.000000" x="53.000000" y="77.000000" rx="1.000000" fill="rgb(0,0,0)" class="svg-elem-9"></rect>
	<rect id="Прямоугольник 18" width="18.000000" height="18.000000" x="53.000000" y="53.000000" rx="1.000000" fill="rgb(255,255,255)" fill-opacity="0" class="svg-elem-10"></rect>
	<rect id="Прямоугольник 18" width="15.000000" height="15.000000" x="54.500000" y="54.500000" rx="1.000000" stroke="rgb(0,0,0)" stroke-width="3" class="svg-elem-11"></rect>
	<rect id="Прямоугольник 22" width="18.000000" height="18.000000" x="53.000000" y="29.000000" rx="1.000000" fill="rgb(0,0,0)" class="svg-elem-12"></rect>
	<rect id="Прямоугольник 26" width="18.000000" height="18.000000" x="53.000000" y="5.000000" rx="1.000000" fill="rgb(0,0,0)" class="svg-elem-13"></rect>
	<rect id="Прямоугольник 12" width="18.000000" height="18.000000" x="29.000000" y="77.000000" rx="1.000000" fill="rgb(0,0,0)" class="svg-elem-14"></rect>
	<rect id="Прямоугольник 19" width="18.000000" height="18.000000" x="29.000000" y="53.000000" rx="1.000000" fill="rgb(0,0,0)" class="svg-elem-15"></rect>
	<rect id="Прямоугольник 23" width="18.000000" height="18.000000" x="29.000000" y="29.000000" rx="1.000000" fill="rgb(255,255,255)" fill-opacity="0" class="svg-elem-16"></rect>
	<rect id="Прямоугольник 23" width="15.000000" height="15.000000" x="30.500000" y="30.500000" rx="1.000000" stroke="rgb(0,0,0)" stroke-width="3" class="svg-elem-17"></rect>
	<rect id="Прямоугольник 27" width="18.000000" height="18.000000" x="29.000000" y="5.000000" rx="1.000000" fill="rgb(0,0,0)" class="svg-elem-18"></rect>
	<rect id="Прямоугольник 16" width="18.000000" height="18.000000" x="77.000000" y="77.000000" rx="1.000000" fill="rgb(255,255,255)" fill-opacity="0" class="svg-elem-19"></rect>
	<rect id="Прямоугольник 16" width="15.000000" height="15.000000" x="78.500000" y="78.500000" rx="1.000000" stroke="rgb(0,0,0)" stroke-width="3" class="svg-elem-20"></rect>
	<rect id="Прямоугольник 20" width="18.000000" height="18.000000" x="77.000000" y="53.000000" rx="1.000000" fill="rgb(0,0,0)" class="svg-elem-21"></rect>
	<rect id="Прямоугольник 24" width="18.000000" height="18.000000" x="77.000000" y="29.000000" rx="1.000000" fill="rgb(0,0,0)" class="svg-elem-22"></rect>
	<path id="" d="M15.3035 12.8193C15.2742 12.5329 15.1513 12.3099 14.9348 12.1504C14.72 11.9909 14.4287 11.9111 14.0608 11.9111C13.8102 11.9111 13.5978 11.9469 13.4236 12.0186C13.2511 12.0885 13.1192 12.1854 13.0281 12.3091C12.9386 12.4312 12.893 12.5703 12.8914 12.7266C12.8881 12.8568 12.9158 12.9707 12.9744 13.0684C13.0346 13.166 13.1176 13.2498 13.2234 13.3198C13.3308 13.3898 13.4545 13.45 13.5945 13.5005C13.7345 13.5493 13.8834 13.5916 14.0413 13.6274L14.6956 13.7837C15.013 13.8553 15.3035 13.9505 15.5672 14.0693C15.8325 14.1882 16.0628 14.3338 16.2581 14.5063C16.4534 14.6789 16.6048 14.8823 16.7122 15.1167C16.8196 15.3511 16.8741 15.6196 16.8758 15.9224C16.8741 16.3667 16.761 16.7524 16.5364 17.0796C16.3134 17.4051 15.992 17.6574 15.572 17.8364C15.1521 18.0138 14.6459 18.1025 14.0535 18.1025C13.4659 18.1025 12.9549 18.013 12.5203 17.834C12.0857 17.6533 11.7472 17.3864 11.5047 17.0332C11.2638 16.6784 11.1368 16.2389 11.1238 15.7148L12.6131 15.7148C12.6293 15.959 12.6993 16.1624 12.823 16.3252C12.9483 16.488 13.1152 16.61 13.3235 16.6914C13.5318 16.7728 13.7695 16.8135 14.0364 16.8135C14.2968 16.8135 14.5231 16.776 14.7151 16.7012C14.9072 16.6247 15.0561 16.5197 15.1619 16.3862C15.2693 16.2511 15.3238 16.0949 15.3255 15.9175C15.3238 15.7547 15.275 15.618 15.179 15.5073C15.0829 15.395 14.943 15.2998 14.7591 15.2217C14.5768 15.1436 14.3538 15.0728 14.0901 15.0093L13.2967 14.8115C12.683 14.6634 12.1988 14.4307 11.844 14.1133C11.4892 13.7943 11.3126 13.3662 11.3142 12.8291C11.3126 12.3896 11.4306 12.0055 11.6682 11.6768C11.9075 11.3464 12.2355 11.0892 12.6521 10.9053C13.0688 10.7197 13.5424 10.627 14.073 10.627C14.6118 10.627 15.0829 10.7197 15.4866 10.9053C15.8902 11.0892 16.2044 11.3464 16.429 11.6768C16.6552 12.0055 16.7716 12.3864 16.7781 12.8193L15.3035 12.8193Z" fill="rgb(0,0,0)" fill-rule="nonzero" class="svg-elem-23"></path>
	<path id="" d="M35.5719 42L35.5719 34.7271L40.4718 34.7271L40.4718 35.9941L37.1076 35.9941L37.1076 37.7275L40.2179 37.7275L40.2179 38.9946L37.1076 38.9946L37.1076 40.7329L40.4865 40.7329L40.4865 42L35.5719 42Z" fill="rgb(0,0,0)" fill-rule="nonzero" class="svg-elem-24"></path>
	<path id="" d="M59.3535 66L59.3535 58.7271L62.2197 58.7271C62.7699 58.7271 63.2394 58.8247 63.6284 59.02C64.0174 59.2153 64.3145 59.4912 64.5195 59.8477C64.7246 60.2025 64.8271 60.6208 64.8271 61.1025C64.8271 61.5859 64.723 62.0018 64.5146 62.3501C64.3063 62.6968 64.0044 62.9629 63.6089 63.1484C63.215 63.3324 62.7389 63.4243 62.1807 63.4243L60.2617 63.4243L60.2617 62.1841L61.9316 62.1841C62.2262 62.1841 62.4704 62.1442 62.6641 62.0645C62.8577 61.9847 63.0026 61.8643 63.0986 61.7031C63.1963 61.542 63.2451 61.3418 63.2451 61.1025C63.2451 60.8617 63.1963 60.6582 63.0986 60.4922C63.0026 60.3262 62.8569 60.2008 62.6616 60.1162C62.4679 60.0299 62.223 59.9868 61.9268 59.9868L60.8892 59.9868L60.8892 66L59.3535 66ZM63.2793 62.6895L65.0859 66L63.3892 66L61.6191 62.6895L63.2793 62.6895Z" fill="rgb(0,0,0)" fill-rule="nonzero" class="svg-elem-25"></path>
	<path id="" d="M87.6533 85.0757C87.6028 84.9048 87.532 84.7526 87.4409 84.6191C87.3514 84.4857 87.2423 84.3717 87.1137 84.2773C86.9851 84.1829 86.8378 84.1113 86.6718 84.0625C86.5074 84.0137 86.326 83.9893 86.1274 83.9893C85.7563 83.9893 85.43 84.0812 85.1484 84.2651C84.8684 84.4491 84.6503 84.7176 84.4941 85.0708C84.3378 85.4224 84.2597 85.8504 84.2597 86.355C84.2597 86.8628 84.3362 87.2941 84.4892 87.6489C84.6438 88.0037 84.8619 88.2739 85.1435 88.4595C85.4251 88.645 85.7579 88.7378 86.142 88.7378C86.4904 88.7378 86.7882 88.6759 87.0356 88.5522C87.283 88.4286 87.4718 88.2528 87.602 88.0249C87.7338 87.797 87.7998 87.5285 87.7998 87.2192L88.1123 87.2632L86.2397 87.2632L86.2397 86.1084L89.2817 86.1084L89.2817 87.0264C89.2817 87.6628 89.1466 88.2104 88.8764 88.6694C88.6062 89.1284 88.2343 89.4816 87.7607 89.729C87.2887 89.9764 86.7467 90.1001 86.1347 90.1001C85.4528 90.1001 84.8538 89.9495 84.3378 89.6484C83.8219 89.3457 83.4199 88.916 83.1318 88.3594C82.8437 87.8011 82.6997 87.1387 82.6997 86.3721C82.6997 85.7812 82.7851 85.2547 82.956 84.7925C83.1285 84.3302 83.3694 83.938 83.6787 83.6157C83.9895 83.2935 84.3509 83.0485 84.7626 82.8809C85.1761 82.7116 85.6228 82.627 86.103 82.627C86.5148 82.627 86.8981 82.6872 87.2529 82.8076C87.6093 82.9264 87.9251 83.0949 88.2001 83.313C88.4768 83.5311 88.7023 83.7899 88.8764 84.0894C89.0522 84.3872 89.1645 84.716 89.2133 85.0757L87.6533 85.0757Z" fill="rgb(0,0,0)" fill-rule="nonzero" class="svg-elem-26"></path>
	<rect id="Прямоугольник 28" width="18.000000" height="18.000000" x="77.000000" y="5.000000" rx="1.000000" fill="rgb(0,0,0)" fill-opacity="0" class="svg-elem-27"></rect>
	<rect id="Прямоугольник 28" width="16.000000" height="16.000000" x="78.000000" y="6.000000" rx="1.000000" stroke="rgb(0,0,0)" stroke-width="2" class="svg-elem-28"></rect>
	<path id="" d="M80.3593 14.1367C80.6002 14.1367 80.774 14.0677 80.8808 13.9297C80.9875 13.7904 81.0409 13.6087 81.0409 13.3848L81.0409 12.1758C81.0409 11.9466 81.0702 11.7428 81.1288 11.5645C81.1874 11.3861 81.2844 11.2357 81.4198 11.1133C81.5566 10.9896 81.7382 10.8958 81.9648 10.832C82.1913 10.7682 82.4726 10.7363 82.8085 10.7363L82.9687 10.7363L82.9687 11.6875L82.7675 11.6875C82.5279 11.6875 82.3665 11.7409 82.2831 11.8477C82.2011 11.9544 82.1601 12.1198 82.1601 12.3438L82.1601 13.4082C82.1601 13.6855 82.1223 13.9206 82.0468 14.1133C81.9726 14.3047 81.8235 14.4694 81.5995 14.6074C81.8235 14.7467 81.9726 14.9128 82.0468 15.1055C82.1223 15.2969 82.1601 15.5312 82.1601 15.8086L82.1601 16.8711C82.1601 17.0951 82.2011 17.2604 82.2831 17.3672C82.3665 17.474 82.5279 17.5273 82.7675 17.5273L82.9687 17.5273L82.9687 18.4805L82.8085 18.4805C82.4726 18.4805 82.1913 18.4479 81.9648 18.3828C81.7382 18.319 81.5566 18.2259 81.4198 18.1035C81.2844 17.9811 81.1874 17.8307 81.1288 17.6523C81.0702 17.474 81.0409 17.2695 81.0409 17.0391L81.0409 15.832C81.0409 15.6081 80.9875 15.4271 80.8808 15.2891C80.774 15.1497 80.6002 15.0801 80.3593 15.0801L80.3593 14.1367ZM84.7765 16.3672C84.7765 16.6081 84.7003 16.791 84.548 16.916C84.3957 17.041 84.2238 17.1035 84.0324 17.1035C83.8397 17.1035 83.6671 17.041 83.5148 16.916C83.3638 16.791 83.2882 16.6081 83.2882 16.3672C83.2882 16.1276 83.3638 15.9453 83.5148 15.8203C83.6671 15.6953 83.8397 15.6328 84.0324 15.6328C84.2238 15.6328 84.3957 15.6953 84.548 15.8203C84.7003 15.9453 84.7765 16.1276 84.7765 16.3672ZM86.7445 16.3672C86.7445 16.6081 86.6683 16.791 86.516 16.916C86.3637 17.041 86.1918 17.1035 86.0004 17.1035C85.8077 17.1035 85.6351 17.041 85.4828 16.916C85.3318 16.791 85.2562 16.6081 85.2562 16.3672C85.2562 16.1276 85.3318 15.9453 85.4828 15.8203C85.6351 15.6953 85.8077 15.6328 86.0004 15.6328C86.1918 15.6328 86.3637 15.6953 86.516 15.8203C86.6683 15.9453 86.7445 16.1276 86.7445 16.3672ZM88.7125 16.3672C88.7125 16.6081 88.6363 16.791 88.484 16.916C88.3317 17.041 88.1598 17.1035 87.9684 17.1035C87.7757 17.1035 87.6031 17.041 87.4508 16.916C87.2998 16.791 87.2242 16.6081 87.2242 16.3672C87.2242 16.1276 87.2998 15.9453 87.4508 15.8203C87.6031 15.6953 87.7757 15.6328 87.9684 15.6328C88.1598 15.6328 88.3317 15.6953 88.484 15.8203C88.6363 15.9453 88.7125 16.1276 88.7125 16.3672ZM91.6395 15.0801C91.3999 15.0801 91.2267 15.1497 91.12 15.2891C91.0132 15.4271 90.9598 15.6081 90.9598 15.832L90.9598 17.0391C90.9598 17.2695 90.9305 17.474 90.8719 17.6523C90.8133 17.8307 90.7157 17.9811 90.5789 18.1035C90.4435 18.2259 90.2625 18.319 90.036 18.3828C89.8094 18.4479 89.5282 18.4805 89.1922 18.4805L89.0321 18.4805L89.0321 17.5273L89.2313 17.5273C89.4722 17.5273 89.6336 17.474 89.7157 17.3672C89.799 17.2604 89.8407 17.0951 89.8407 16.8711L89.8407 15.8086C89.8407 15.5312 89.8778 15.2969 89.952 15.1055C90.0262 14.9128 90.1753 14.7467 90.3993 14.6074C90.1753 14.4694 90.0262 14.3047 89.952 14.1133C89.8778 13.9206 89.8407 13.6855 89.8407 13.4082L89.8407 12.3438C89.8407 12.1198 89.799 11.9544 89.7157 11.8477C89.6336 11.7409 89.4722 11.6875 89.2313 11.6875L89.0321 11.6875L89.0321 10.7363L89.1922 10.7363C89.5282 10.7363 89.8094 10.7682 90.036 10.832C90.2625 10.8958 90.4435 10.9896 90.5789 11.1133C90.7157 11.2357 90.8133 11.3861 90.8719 11.5645C90.9305 11.7428 90.9598 11.9466 90.9598 12.1758L90.9598 13.3848C90.9598 13.6087 91.0132 13.7904 91.12 13.9297C91.2267 14.0677 91.3999 14.1367 91.6395 14.1367L91.6395 15.0801Z" fill="rgb(0,0,0)" fill-rule="nonzero" class="svg-elem-29"></path>
</svg>
